PathFileType	4	(X/Y/Z)	Run_300 02
DataRate	CameraRate	NumFrames	NumMarkers	Units	OrigDataRate	OrigDataStartFrame	OrigNumFrames
100	100	4	42	mm	100	123	128
Frame#	Time	RASI			LPSI			RPSI			RTH1			RTH2			RTH3			LTH1			LTH2			LTH3			RTB1			RTB2			RTB3			LTB1			LTB2			LTB3			RCAL			RTOE			RMT5			LCAL			LTOE			LMT5			LACR			RACR			CLAV			C7			RUA1			RUA2			RUA3			RLEL			RMEL			LUA1			LUA2			LUA3			LLEL			LMEL			RFAsuperior			RFAradius			RFAulna			LFAsuperior			LFAradius			LFAulna			LASI		
		X1	Y1	Z1	X2	Y2	Z2	X3	Y3	Z3	X4	Y4	Z4	X5	Y5	Z5	X6	Y6	Z6	X7	Y7	Z7	X8	Y8	Z8	X9	Y9	Z9	X10	Y10	Z10	X11	Y11	Z11	X12	Y12	Z12	X13	Y13	Z13	X14	Y14	Z14	X15	Y15	Z15	X16	Y16	Z16	X17	Y17	Z17	X18	Y18	Z18	X19	Y19	Z19	X20	Y20	Z20	X21	Y21	Z21	X22	Y22	Z22	X23	Y23	Z23	X24	Y24	Z24	X25	Y25	Z25	X26	Y26	Z26	X27	Y27	Z27	X28	Y28	Z28	X29	Y29	Z29	X30	Y30	Z30	X31	Y31	Z31	X32	Y32	Z32	X33	Y33	Z33	X34	Y34	Z34	X35	Y35	Z35	X36	Y36	Z36	X37	Y37	Z37	X38	Y38	Z38	X39	Y39	Z39	X40	Y40	Z40	X41	Y41	Z41	X42	Y42	Z42	

123	  1.230000	1022.497273	1088.032461	-219.909468	892.732116	1135.706151	-420.888458	872.697175	1134.237919	-308.317631	959.198409	967.941728	-167.330820	956.287286	810.959281	-193.107491	1043.972668	679.024907	-197.301089	991.525403	934.727350	-516.002779	869.739123	811.732332	-483.213037	882.122320	666.952859	-468.237982	1170.044897	451.397537	-264.208489	1097.606871	388.000989	-202.628072	1181.548755	263.776408	-284.228922	783.255842	456.533280	-408.495815	650.616094	470.145875	-472.012353	586.468390	362.271082	-423.282591	1098.805103	100.062083	-292.365082	1328.552246	170.996566	-321.318735	1301.201599	112.980631	-232.458078	423.004456	409.762858	-423.064113	475.074789	182.653445	-378.811683	423.612191	199.430264	-477.049853	1013.121173	1577.612986	-494.274455	985.664837	1551.930512	-178.730904	1057.929204	1523.723273	-298.234121	941.411932	1585.695655	-346.661094	847.068145	1496.159168	-146.893755	863.823239	1431.829361	-99.999674	767.962688	1388.163386	-80.284462	713.863852	1339.882885	-64.799204	725.590468	1311.013588	-150.715887	924.596042	1486.012434	-565.493823	956.346227	1414.483258	-594.392363	887.434595	1353.488741	-634.125292	875.720723	1285.596203	-657.580938	842.126810	1261.671405	-573.949317	789.259165	1262.007493	-50.641248	943.202788	1188.033316	-113.443724	901.681598	1146.217313	-77.537668	947.196295	1250.903965	-631.691168	1081.720653	1294.203852	-507.568481	1097.277000	1227.371416	-532.852885	1056.004396	1068.347462	-462.260676	
124	  1.240000	1021.688025	1082.583441	-220.237110	891.992377	1129.211228	-420.753007	871.772869	1127.926509	-308.521387	957.393296	961.862854	-166.611746	955.591000	804.755195	-192.705840	1044.856634	673.540260	-198.291779	993.025344	928.919806	-515.293771	875.478213	802.164320	-483.022311	892.018560	658.174074	-468.534604	1167.546729	444.185431	-265.574589	1094.349772	381.537665	-203.902618	1176.522707	256.453654	-286.120321	793.826773	450.266451	-409.454396	662.028516	472.826546	-471.821179	591.661254	368.025170	-425.694759	1091.453295	 94.414456	-294.660947	1321.659258	163.649130	-325.347108	1294.310507	103.048452	-237.128798	430.798696	425.501765	-423.414158	471.362580	194.826825	-386.290378	420.758976	217.374797	-483.838792	1012.988341	1572.101307	-492.859172	987.500343	1544.812217	-177.522790	1058.594212	1516.961452	-297.809522	942.121237	1580.085912	-344.911258	849.607504	1487.804329	-143.028906	867.516932	1422.955035	-97.645729	772.532533	1378.111665	-76.458980	719.213511	1329.202485	-60.594387	730.104725	1300.652351	-146.737801	923.600469	1481.427593	-563.950105	954.710265	1409.614496	-593.013412	885.440317	1349.131009	-632.532765	872.988797	1281.263298	-655.349452	839.641568	1257.602614	-572.261251	795.900970	1252.485002	-47.675980	950.006943	1180.887739	-112.553364	909.632674	1138.333005	-76.176327	943.740484	1244.099600	-630.646164	1080.152573	1281.765944	-506.291049	1093.666853	1215.259770	-533.324724	1055.061132	1062.239517	-463.849945	
125	  1.250000	1021.063259	1075.549863	-220.281370	891.078555	1121.948449	-420.427897	870.911129	1120.379613	-308.381629	955.363103	954.756021	-165.805635	954.763461	797.501910	-193.939438	1045.168873	667.300930	-199.499336	994.054541	922.661297	-515.003413	881.277513	791.849510	-482.960445	902.632986	648.811664	-470.175853	1163.746278	434.988489	-266.053520	1088.906730	373.913220	-204.565305	1168.928442	247.314733	-287.380130	805.867337	443.693081	-410.992477	675.527509	474.203334	-472.208255	599.386619	372.952494	-427.556161	1079.278415	 90.880926	-296.235484	1310.959102	149.364275	-329.132003	1281.832117	 88.308743	-241.481313	441.729965	439.644350	-422.578226	470.784278	206.055541	-393.492348	421.850155	234.684692	-490.399108	1012.579140	1565.266338	-491.679197	989.276026	1536.744933	-176.396561	1059.150412	1509.221649	-297.458454	942.634309	1573.454127	-343.394722	852.339258	1478.183035	-138.902590	871.676442	1412.885355	-95.067099	777.737248	1366.569972	-72.223625	725.305937	1317.048311	-55.821976	735.209434	1288.756170	-142.159238	922.216456	1475.557085	-562.395112	952.817301	1403.299404	-591.516646	883.020916	1343.441228	-630.625637	869.702705	1275.691548	-652.962055	836.721962	1252.314752	-570.373432	803.240396	1241.430101	-44.258217	957.424727	1172.359488	-111.554815	918.254345	1129.094350	-74.671044	939.531130	1235.995113	-629.534459	1078.028040	1267.511544	-505.280623	1089.301642	1201.443338	-534.191151	1053.699651	1055.014324	-464.971467	
126	  1.260000	1020.465310	1067.199666	-219.581941	889.855554	1113.915806	-419.915842	870.047706	1111.833715	-307.820049	953.828077	946.578181	-165.591939	953.430375	789.460788	-196.211026	1044.509016	660.007663	-200.416844	994.862610	915.915063	-514.978248	887.135629	780.962153	-482.760093	913.940952	639.022464	-472.500822	1159.138051	424.402307	-266.083766	1081.779340	365.437322	-205.420827	1158.746112	236.884942	-289.178545	819.257976	436.815266	-413.730745	690.419470	474.783806	-473.163051	609.291686	377.054078	-429.351714	1062.047277	 90.163772	-298.559944	1296.327520	127.994461	-331.943316	1263.208593	 71.385552	-244.364389	454.730369	451.696418	-420.695438	474.130708	216.079960	-400.415799	426.934331	250.548514	-496.389192	1011.779537	1557.173608	-490.722343	991.034573	1527.738007	-175.235914	1059.643229	1500.669952	-297.006451	942.853852	1565.699407	-342.143774	855.260624	1467.376212	-134.627200	876.264560	1401.694985	-92.257324	783.551812	1353.676915	-67.669699	732.111791	1303.472970	-50.641428	740.816599	1275.551873	-136.951154	920.314388	1468.332170	-560.758487	950.575564	1395.541061	-589.916008	880.196264	1336.357334	-628.487877	865.951628	1268.900380	-650.642668	833.324718	1245.866856	-568.446943	811.294923	1228.947759	-40.453163	965.440737	1162.520345	-110.430476	927.511626	1118.543931	-73.030339	934.606975	1226.612514	-628.435326	1075.224430	1251.540839	-504.557603	1084.102942	1186.005343	-535.385262	1052.071794	1047.041495	-465.658597	
